<?xml version="1.0" standalone="no"?>
<!DOCTYPE svg PUBLIC "-//W3C//DTD SVG 20010904//EN"
 "http://www.w3.org/TR/2001/REC-SVG-20010904/DTD/svg10.dtd">
<svg version="1.0" xmlns="http://www.w3.org/2000/svg"
 width="60.000000pt" height="60.000000pt" viewBox="0 0 60.000000 60.000000"
 preserveAspectRatio="xMidYMid meet">

<g transform="translate(0.000000,60.000000) scale(0.100000,-0.100000)"
fill="#000000" stroke="none">
<path d="M86 423 c-36 -42 -66 -79 -66 -82 0 -4 63 -69 140 -146 l140 -140
140 140 c77 77 140 142 140 146 0 3 -30 40 -66 82 l-65 77 -149 0 -149 0 -65
-77z m154 7 c-20 -28 -40 -39 -40 -22 0 4 -3 17 -6 30 -6 20 -3 22 31 22 l36
0 -21 -30z m170 23 c0 -20 -13 -53 -20 -53 -5 0 -18 14 -30 30 l-21 30 35 0
c20 0 36 -3 36 -7z m-77 -53 l28 -40 -61 0 -61 0 28 40 c15 22 30 40 33 40 3
0 18 -18 33 -40z m-168 -12 c7 -27 6 -28 -35 -28 -44 0 -45 5 -7 48 23 25 32
20 42 -20z m336 -10 c9 -16 5 -18 -31 -18 -43 0 -46 4 -30 46 10 26 11 26 31
8 12 -10 25 -27 30 -36z m-287 -129 c15 -40 25 -73 23 -75 -2 -2 -36 30 -77
71 l-74 75 51 0 51 0 26 -71z m154 63 c-1 -4 -16 -42 -32 -85 -16 -42 -32 -77
-36 -77 -4 0 -20 35 -36 77 -16 43 -30 81 -32 85 -2 4 29 8 68 8 39 0 70 -4
68 -8z m72 -67 c-41 -41 -75 -73 -77 -71 -2 2 8 35 23 75 l26 71 51 0 51 0
-74 -75z"/>
</g>
</svg>
